<mxfile host="app.diagrams.net" modified="2023-02-28T13:16:46.679Z" agent="5.0 (X11; Ubuntu)" etag="AJG1brD1Q7zId3-LhR7P" version="20.8.23" type="github">
  <diagram id="3228e29e-7158-1315-38df-8450db1d8a1d" name="Page-1">
    <mxGraphModel dx="1360" dy="754" grid="1" gridSize="10" guides="1" tooltips="1" connect="1" arrows="1" fold="1" page="1" pageScale="1" pageWidth="1169" pageHeight="827" background="none" math="0" shadow="0">
      <root>
        <mxCell id="0" />
        <mxCell id="1" parent="0" />
        <mxCell id="21531" value="" style="ellipse;fillColor=#E85642;opacity=60;strokeColor=none;html=1;fontColor=#FFFFFF;" parent="1" vertex="1">
          <mxGeometry x="339.5" y="308.5" width="500" height="500" as="geometry" />
        </mxCell>
        <mxCell id="21532" value="" style="ellipse;fillColor=#12AAB5;opacity=60;strokeColor=none;html=1;fontColor=#FFFFFF;" parent="1" vertex="1">
          <mxGeometry x="179.5" y="18.5" width="500" height="500" as="geometry" />
        </mxCell>
        <mxCell id="21533" value="" style="ellipse;fillColor=#97D077;opacity=60;strokeColor=#82b366;html=1;" parent="1" vertex="1">
          <mxGeometry x="489.5" y="18.5" width="500" height="500" as="geometry" />
        </mxCell>
        <mxCell id="21534" value="Dev" style="text;fontSize=24;align=center;verticalAlign=middle;html=1;fontColor=#FFFFFF;" parent="1" vertex="1">
          <mxGeometry x="299.5" y="228.5" width="190" height="70" as="geometry" />
        </mxCell>
        <mxCell id="21535" value="Ops" style="text;fontSize=24;align=center;verticalAlign=middle;html=1;fontColor=#FFFFFF;" parent="1" vertex="1">
          <mxGeometry x="699.5" y="228.5" width="190" height="70" as="geometry" />
        </mxCell>
        <mxCell id="21536" value="Sec" style="text;fontSize=24;align=center;verticalAlign=middle;html=1;fontColor=#FFFFFF;" parent="1" vertex="1">
          <mxGeometry x="499.5" y="558.5" width="190" height="70" as="geometry" />
        </mxCell>
        <mxCell id="wA-SJxr98mXoUeWgjmq0-21540" value="" style="shape=image;verticalLabelPosition=bottom;labelBackgroundColor=default;verticalAlign=top;aspect=fixed;imageAspect=0;image=data:image/webp,UklGRmQsAABXRUJQVlA4WAoAAAAYAAAAewEAewEAQUxQSMwWAAAB8Idt22I50fad13VXxwV3D65hgoTBfRx3d3d3m4HB3V224cEZwd1dgusQngSPe7ru6zr/6O7VtTpVq+5Ht4iYALSgIiETdOy7wHJr/nafU69+4MVPfmnPYzQz807ZXe9oZhZjnPHDB0/eceFR2603dLHBgo4hqCCJimZB0Hn/pTfc8YjzbnropU9+mMae7JNHvvvU3Zefsu/vVpmjE0A0U00dGgI6av/ltj359lc+GT3J2aXneYxmZt5pt7yjmVmMee7scsZPX751/zm7Dh2YoWPINF1oUAC9l1hn98tfHOPs0vMYzdzZo93NYh7Z9cRXbzx43SF9AWgm6UGDAkDvX+172WOjnB3NYh6jOWdl9xjzGM1J0kc9efneK2UAEIIkBFUAMv8Ot340liQtRmfZukUjybHvX/enOQVA0GQADBx+3AvtJOkxGsvaLDrpnPLoQUN7IwVqAKDr/OXlqSQt5uYsd7c8dzonPHHqyh2C1DkFZMgpH0wjPTdWp0UnJ7928PwAVGqbYNC2900nacaK9Wh0Trhp076oZ6qCeU54x1nlzhkv7DcIolq3gmDeP3/vNKs0c/LLw+aAhHolmPuEH+geWfEe6fzi4IGQ+qSKbJ9P6WwVnSN2EYjWI1Gs9iLdWwcz8plhUKlBkmHwWTPpka1kdM48d05kWnckYOhbdLaezo82gEi9EcFuExlbEUa2n9kbWmcCsosija1pjHx8IQSpLYJ+99HZujo/Xxuhrihmf5LWyjBy4jYI9UQx8Cm2O1vayOkHIEgNEfR9kMZW18mDkNUPEdzMnK2vM+6HUDsCjmX0Fojm+fbQmqFYbyadLbFz/NrQWiEYPILGFjny04WhdSLgXOZsquXWwWNu1cec9wfUyICVx9GaEZ2NmlUejQdD6wNwIyOb6qOfuvSQHbba6ajrXvqZLaBzzPLQuiBYYQaLdyOf3muIoPNspcPfpZtXG3PeC5GaoLiGXpzxvU0yQENQ1RAE6LPrSMaKc+MWCPVAMPvXtKKc7Zf0ggRF16qCeR+gVxuNr/eF1IIMu5NekDPfA5IpGtcAPYvmlUbnDtCacAPbWawz3xEBBYridEavNONbkDqgmP0NxmLceCRUioAIbqJVmnPmnxBqQMCKk2jFGO+DCIoVzD6CXmXMeUtN2Ig5C3VOXBqCohW/qzjjN4tBWz/FbkUZz4Kiidl9jFXGnFsh1IGjC3KOH9KUDJvTvMoir0UNFJzEWEjO2wFpgmLwG4xV5vy8L6TlUxzJvJDIfdGGZrbhSuZVRtpSteDAYpzjhiM0JWAP0iuNO0FrwAHFGD+fF9oUxZpTqs355/oS+VaANEWw6JhqM96NUAP2L+plaLNm/7HqXqwzr0KaNedPVfcutAbsW9Q7vdCsIeOq7kOB1BTj14tAm6LYYFrlaR3Ypxjn1I0RmpLhMHrFvQdFTWHOI9HWpFuZs9peQagBexf2z16QJigW/pRWcc/VGHdfFdqEDDszZwLaqyAab2mGoP+rtITlbN8QWpjiADpT0J5F0fjGQEhBimV/TER7FMacN0O0kIDBrzBnEtq9OBrPhUoBir73MzJ1ufOa/pBuCRb4F42JaLcmkM5nloNIEOlENIhgw09oTGE0jj1jXgiQhZAFADLkmuk0JqNdm0Nzjrpo8wXRqS651Y0TaMZU1mn7p4/feuG5l971zEhjy1gPAnZpnkdn1xZTG+kx5maWR2frWBd26gkt6f/02jHp7fDf9rb/b3vb/q8c2yS9rf/b3lb/bW/LpLdF0vsTZ8QSTx5bMGcrXg8US//11NPL+oxTLviRnjLKXTH3u4xpQ7S8M8w3InWUuWLe/5tOQw9UlVTVU0OQFBUWWnJIk5dcctH5+gGABCk3DVkWVEW08jPMVxGKOR4bM3JUc7//7t8jnrnjnN1+1QZAgpaThEzQOirmfrcq5n6PkT3Sfhlx4xaDAAQpHQkKALMttfqmOx928llnnXb0gRV/0H7Hj6ZVw1zvMPemm8VI0vnz9RsPgmqZSFAAsvT2Z//Ha9/lrMHdepeRPdJjHp30V4+cC6JSEhIAtK3xl1d/NHbM89gqthydR6ePPHYARMsByNY852M6yZibsw7PWnRz58jdM8z6qoIB+/xrEt1jbs66PIuRHs352DAEnbVUMMdxXxotOmv1LEfSjdNP7Q2ZpTD7oaPoFlm3y4Aenc8tC51VRKG7vEdnHS8FksYftkSQWUIUSz9CWsqhMz8JKrOAoG3/cXRjPS8NmvGqXpAeFzD335zOul4epPGuDNLDAtb4lNGZgNx4fz9IT1LFrmOZO1MQPefdbdCeI4qTWPNLhTTeAOkxArmA5gnJnWcj9BBRXMXoTEh0972Q9QhRXEFn3S8bOicOh/YExXmMTE00fjgXpHkBRzN6emLkbQjSLMW2OVNgCblxD4QmBQz9iZakaPx+CKQpitnfYmSaovG+JgluZmSqcvouCE0I2JfOZMXIj+eDFhaw3GhawmLO04oTZPcxZ8pyTlgcUthuNCYtGm8oSjDPN8nLOWEotJCAK2lMXMx5O0IRAatPTGDGCasjFAC5nTmTF3NeDOmeYB0aE5hz8oKQAh5JY3SeAu1OwKbT6UnM+FlvSGMScA9zJjGn74yssYDhU+lpjDnvgUpDgkuYM5EZJwxFaEQw7zh6aniytJjzUGgjiiPpTA2PlJfx9b6Qht6mJYf7y4vkCo0EbDaNnhxuKTHn2dCuMlzJnInReXGJGd+BdKGY7wPG9HAitLScY38F7SzgD4xMj3uUGCOPQ1tnwJVJYiNIA3O/VzI574NIB8HAb+npwRZvaP6PSsb4zeLQzjZienT+OKChxb+mlYpHbobQQXExPTkYn29D1wEr/FAyzHkapIPgPVpyiLwMDa0xuWyMz2YAoFh1DD055NwDoasMm9O8XMgpc0KANhxCY2p05/DGdmQ7S3ezDgE3sz05RI6YB9pVwJHl4zwTCsXsbzImh3beiSBdCS5jXjbGRxAQMHQ6PTk4D0SGLgVtjzKWz2f9IQHbMGdqNH63GLSRwSPpZeMcszpUcCFjgngEAY0sxvJ1524IyJ6jJQdye2hDW9FLh+08BwEDxtJTg/Pb2SANKM4vp7sArGpMjjlPhaKhF2nlE/nKbMA+TI7Gn1dEaEAw/2h6+Rh/WAq4lJ4acl6JDA1m2D6WkRvXAp6gJQbnz0tDG2nDZcxZwjm3QfZhcjCeA0WDikGvMJZR5Ml9l/4uNRg/HgRpJGAdupeR8bYFNppCTwpu3A4BjQpOZc5yemGF3elpIfJWqDQi6PchvZSc3657KtuZEo0fzgVBY5uytG3bK9KCc+LaUDQccA+trHjMvcwTgjv3QkDDiuV+KrErXmRMCTwVAY1nOI85S/uBzxKC57wQKo0pFvmaVl6v/kJLBZbzPEDQuOBERpb3N05PBO48DSJoXDDPT/QSm8ycSdAjpxyMIOhmwEU0lviMROCRozeHCroZsPpYepnNZEwDfHwxBHRXoA8xZ5m3pwAzTjysFzLpVsD+jCz1vP65kY8uBxV0W7DkL/Sys7pHvrOdQAXdFvR+nMZyj7XOIp2f7Tc7ig04l5Gpys3I+M5eA6BaiGJnuped0esand/fvUUboIoiFZtMoTM1uVn0DjMeO3A5QeEZVviBxtL3GuVuFnMnyanf3L/nwgqIFqVY8Ssaa45bzPMYzd2roHP7/uXbj9loAAQIioIlw7CvaKw3Fp3VadPGfvXm3686foe1l+yLZmvAxmNorIaqtugkZ/705Qu3nnXA1uututRCC8xV7nPMNrCPolMN2hRR7D6Fxtoao9E55Y3bjv3dkAzVKiFTRVM1w6CL3Y111SKdkx7Ye9jsAKBZUBWRqmi6qGDlVxlZV92cEx7bez4AaOudBUErqYq+J0xk7jUlRufn56wsAEKmgpZSgyJs9TYtsp66Ob89YkFAFS2nBgh+/a9Ic9ZTN44+oT+gipZTFRj0+8dIN9ZTj8yvXwKiipZSQyYAsMwJrzvdnPXUjV9sDlG0jqIaMgEguvABj/1EmrGueuQdc0EEzRdVDRWYZYJOBy73u7NenUlnjKxgr4jIiYcIgqCJEjLtUJ3ZvCtvtu/Zt788hiQtRlay06vA+NNGCILiJQR0bOu/wFo7HHrGRVffeFOp3/a3h59999Nvfp7OjtGclV0Nxs9WRBA0t8/yvz329tfHs2Jjbs4qr4TIz5dEm6BYDR0W3eWK535kp25msQLzPI9mzqq3CjB+PASKYlWBtiWOfWWMkbRozppdAcaRKyCg8MX2fSonyRidNTzSSs45YV0EFKkiGHbdKDprfPmReyGgQFGE1R+aSZolLOPVEBQ77K520oy1Pi+5yJcGFaGKeS8eQ2ftb2csM+eEdRDQbRFs9Q3NmLiMZyKgu5Jh3lvIaEyAM5mXmPPdXui2BAz/lMY0OKPUjH+Edkux1zQaE+E4xvLKeS9EuqESzslpTIVftNPLyjllYwQ0LorraEyHL/9MKyvjAwhoXCS7luYJ4d6PGcuKvhakMRG5irkzIV7xYmkZHw/opuA0GpPiCQ8wLyeP/BNCYwE7Oz0t7Hwt28sp8r25oQ0FrPQTjUmxfYMzyyrnX5GhUUG/FxiZEp1fDN2fVkrOCcMRGlKcS2NSNP5r8T+208vI+CYUjQasM5meFiIvG7zqL+XkPK0xQduTzJkWcx6IOb+klRG5MqSRgJ0YPTlsBLxVSs6PBzQk6D+CxrTonLQicG8pRV4MQYOKvelMjJHvzwOcQS+hnDsgNAK8Q0sNOR8UYFuWsHH80IYybG/01NDO8wEsE0so8o3ZoV2J4m7mTIzu3AsB/X6gl04770JA1wErjaElB45bEwp9lFY6kWeirQHFAcyZGo2f9oUKzmUsG6ftiKwBZP+iJYh/IkjAdszLZ8Ia0K4E809lenSeAkXAqjPoJWMcNSekK8VOTJJrQqCY+33G0vkMgq4DbqElB+cP/SEQxZ1sL50XoA0IRiQI493o2IYTGUvnrkYUS/2QIHLuCwUQsNEUerk4L2okw5bt9NTgnDkMAYCg/5e0sjm1kTYcx8jUGPnyQAgABDxYPoc2diXbk0POi5Gho2J/etns3YAIHmSeGpwzfo/QiWCJnGWzeyMY+DJjajB+3gvSCdD7JVrJ7NGAYsHP0oPzKig6VxzHvMSW/pGWGsg1IV0ErOPuZRWwyjR6YnC+378BwYAXGctrDXpqaOdRUHTdhvOYl9c6jInBOG4VhAYC1p5IL631GZkWc96NIA1A8TqttDZknhac7VsgoLHD6KW1UWowvgdBw4L5J9CT2S7dAXAtYxozfjKwWwEb0j2J5TwYAd0U6BPMU1jk+/NAu4MMe5Oevtx5ODIU2OuTJMb3e6FIwf609GXcElLMbB/RUlfOe0MxCDiAeeIyjh+GgEIFA95gTFuRpyNDwQE7GT1lGV/rheIFj9ESlnPKcGgzVptJT1c5j4OiiYpzmCeryPtEpDlzvs+YqIyfLABBUxWbtdOTlHPC2lA0WfEXWopyztweGZotGPAs8/TkxiMQ0PyAZUcxpiZv56kQ9ETFljlTk/FsSM9AwHHMPSWZ8SwEQQ9VXM48IZnzRAh6rEh2Jz0ZOWfsCe1BEGm7m3kassivN0Ym6MmKPvcwegKyyKcWg6KHK/rcwATknHxWLwTMin+hx6Rj5nx7XcyaIth7Ej3hROf4k/pDZZaABAwfQU82zik3LwVRzLKCuW5xmqeXaGR+33AIZmkVbDOSHtOKRyfHXL+CQnXWggbMcfFUerQkYpZHIzn9pZMXgUgQzPqCVe5oJ81aFLdW0M3MYu7sGN84ac3eKE0RYI17JpEevRVpLdt/+eTug5ZpAxCkLCAKwYoXfEAnY56beUsx6r0RVf/BFyP/8+tP3nr6niuP22KZDAAkCEpVFJj7D9eMprOjxabn3B1SEccNWmC+ql9kyJKLLzRXH3TUoCjj0EuA/mud9shnP81gD3TuB62I/aBoEUPv3llAaWtAxz7L/WaPo04+o9mnn70KpCIOQKbVH1RVBOUfgqDHl93+UNRp1ZD1RElUPf//i7Jv0ju63zxzlfbcsyWP6RMnlfYEfwEhcZS58a2k9/b/qfUO9H/hePd/3Xvvf917H/K/Q8TYVYye2MxInz7+l1/GTXPSrWkjIJKQaJ/fceDaCw8auMAae9/0Yc6EZs7nd5wDgk4FA//0D7p5GnOO2jUAGkQAkRAg8vvPaN6MD5KR8amFIUHRoATBHHcyhRnv6gdBtwW4gNYUJCHjfb1EUaAorqQlLuMbg6AoVDT8k5a0jJNWQ0DBikVH04r6UFJQ5KXIUHiGoxgL0wTk/HERaHGCwSNo6cp4GxRNDDiHXtBHoQ5szPZqc64DaYZg6en0+rIl80pzjp6rOYB8UFjW+il2r7jIh9uahRto9WWfist5EQRNFRzNWMzHtWC3imvnCQjNUexSWFvrF/BHtlfc4c3bqrBedWBdxoo7rnk71pmVp9KrLOd5kOYIDi3qk96tn2KBTxmrLPKeDNIU4HJaXRGEfzGvMuOXszftdXoxn/Zr/dCGS9heZXQObY5gwalFfTVnDciwK+nVdhG0GQFHs9iaoFhkFK3KjP8eCClOIC8zFvRJ7xqAgEeqjcZTkBXXhl1oXtAbCGj9Fbuy2o2jl4YWJZhrBI0F3V0LBLN9T68yRj4UIIVdQ2OxzuOgNQCCc5lXGp3nIkgRkuFQNnENSB0IGDqBVml0ngLV7mnA3u30gpzf9q8HCLiRecUZr+iLArOT3JwFR16MmqhY6Rd6pZHOF9aEQIN0GgIEy/6TxbtxA4R6AMWfaRXHyBk3rdSGBrMhF01i9MJyPt0bUhMEs31GqzgaOfPhg9dbtA/Qa8Ff7/u3yXRzFm7cFxnqYsAf3LziOp858t1XXnn7q+l0NtX4jkBqAxRXMLYAFtlljM1x/h6C+igY/Dpj9ZEeO3U2N+ftqJeClX+ktwA90/jVYtBagYDNp9JbImf7VgiomRn2cLcWyCNPQUDtFBxC89Yn5+2CGiqK/dtprU7k/f0gNQSSYZeZtJbGIx+eA4p6qtjse85sYbydd/aBoK4GLPsazVsVd16aQVFbJWCu6+nRWxHPOekQBEWdFcEe4xit9bDIr9aHCuqtKJb+l9NbDWe8cx6ooO5KQNuuX9OjtQ5uzs+3CgiCGiyKuS+eSoutghmn/nVOqKAeiwiWu2siW8Yp96wIVdTrte7ISYvVFiOZ37MearcodIWbxzvNqsuMnHbPGgEidQtQESx21ofG6nZ+edmKEAmCei6Ye8cHptBp0avEopG0J/ZeCLVeAoCFj3ptEsloVWFG59R3T14yAEHqHKABgKx66mPj6HTLo3l5ucXcnM4JT5/9awUQFIkwLLPTdd+wo+fRS8g95k7SOfLmXZfPkBQlAJD+w4555JspJOm5mZeHm+XsOPmbx09cvb8ACJoSAAkBHQesfeh1T410dnSLMY/R3L3nuVuMeYxmzo7xi8evPnD4AHTUIEiRokEA9Bmy9s7nPfJ1ZIOe5zGambs3xd3NLMY8NzY6fcR95+yw5qJtACSoIGVq6NVLACD0nXedvf78t1c//c+xM9mwxzzPY/fzPI9sPE764av3nrjuuG1Wmb2PAoD06hUECVRCFgRd9lpo2O92PeLsK+94+Ll3Ph01biab6NPGjPrs7ef/edc15x6/zxbrLDMYXUsIQZBYRUPIBF22DZ5vsWVWXv3XG2y65Q677XvQkUced3zHY4489IC9dt3uDxuvv9awlZZZdL7ZeqNrzYKKoGUFVlA4ILAUAADQbgCdASp8AXwBPpFIn0qlpKMhpnQJGLASCWNu4MI6nNvjCnDJo8Kuv2X9q3q7Yf8r/fe8O1T9e5VtF3bDnP/vPqO/SvsFfrz0nfML+2/7Ve9V/zP2Z96P969QD+6/53rUfQN85j/2ez7/g/O71YjzV/de1X/I/0/psfV/r9y7mmOfj+e7zeAE6XtCMEf5nzD8QDyW/6Pgb+hewH/Nf7r/0fZl/sP/f5U/qv/3+4V/O/7h6T3/z9pf7c+xL+uhDILhN4CJiF2Pu/UyK7vcJlYFdf3ICm0YrR2geLM4SAT1lt6go0WkFnQs/hyd3pdxOwc4ehfTz5ZUlYm7LTlaxehfgn4mwxuW9YVQcn3yR0kboP4raT94cL3QCzovQvrzOsN15mFAoo9Mm+XnBMwSf+2N4wqCgXCfVEVtzlrijLDPzWhfgoFtArsuLy3mxn8/H3Gx/xXoPvsS9lPBMT4eKLWzSe94tGzd0+zn5KKXX7i0VHeFGWF2pvh7lG1vG9Cs9bLRSegpk7SogvpnKrN5qQWWHgqwbWF0yk+mK2sQtMyPKNBItiKPs0d2vQgtcUaLF9e+9LbXAn2igRc+/czaSBWQstGOfqDLRf+eAI9Cb9m+UV7tL9VyKobwDs+LSCmzCCUzgxPMYjVz1Vf+MuD3c+2Zl+Vv+YkzFftEU+y95FPMEQ9jsvqb8YECw2gIiUT/F5mYJMU6EYHHEQMnqI9CZty4mtEQ39Lryc7qs2PHrZFn+VusAw7W8EmmtJwgRs3Op1h4GOfQekFnRehfWO3ZvZAANhPi25gQMFGMbOP5oLhOfnOi9BSgZTRHnPWBz8PbLoAoUeVBL/Pi0gqIwSpalsrULsQdCyZHbxlytdFbaP9GguE+pUQYhsf7+7400+TSgb+AV3Fq78VS3Oesxcaa+428OofEPkT/rCnrZAMu1bmv7bHvm4nyxvSjwGKR+0aJo+/mH/BjnnUnsZdTVOdF6FzMb7jnyMECjSBk8cVqfFpBZ0Md4HQbGUaGLVVEsruHf8HqAbfYxJgFXzxls1oX4KBbKO1VcD4Io0V5k4//39p9fjWQGwdi4q1KrvxpSHPq4o0NziadOhOnC2f2vlPspinGRyuNSeYZYOo6qkgs6L0Lj3/zOIjiLB9TsWaoMWmK4FSlX+PfkuHkwP2Bb9Hu4efK8YwMn4vOhXzflmgoFsgAAP7ejAU0kw6Lww6/2OpdC7m5dhhgFW72uiYMZtw9YMgiaRchigGt2oU+fqcF47C/EC+HlfOSS34w2OYBRoupbfl35cNuqMtL6SOlloYScBSBdNNO2zcvHYTyqg+f9J5ypBLErVQUu8WXRV2lA37qCAKDmzJDClKBAov3VJE614WXKx9Aj3qmCfombCbU0Kp7ncxP5PNODI68kMFchJ6ri13c7wq3YjFy2n128FOUYAPL1X3EPlGIHx1pyeXxBcadkcEjOFYMOiHfiNPAg7gz6REP+H9Q2vPhSQO1hboDrcSUO4OehZP20XxK2UDPXF3KI4XbSaw4SQzaqOoPPKIVTn6TIe3wfwdOpAAWM5qUYVJi3LlKiH+71WFAEDBM96gAJWMNO7Y5z1qLtlR5S5rjYdSeMpMaLVFsw5WOjdhAnOtZOm7erdChM464rKcas4sIticwr+7yybUk5mkKIvl5lZ2JOAb9mQafTbkudhV0uxx33UDUP8PqpcwcQhrpbQHcNeWAuIAlMo/BjD8UNFj9WNzd797fFGp1cmrvBmi/9pB0UieRmxl8ZBqrF/ABWeMFHjGRuRwC3pyl3KzyJ7SS80xL6rqUY8IbrXMCfuVKAtinM+ePzlExl5WQ828uvA9fQ4co7zlUed0/j7onZCUEU+jdS0dWjWMw6zhw4eO7y8XEyHans478LDmvOgVoAmbeo9UQZF0ICqu4fRH43KXfW7+SO0vjEkEsusRBkF0pergsSgtqoFb2YB52ffrwKwuvfNWKJSk7cRiLVBdR7j6X9atwJoAACKYoKU3nT015hx5LY1s71RRSVaThRYSNlUtCqgRwDP48u/8JKzd1Pv4NNzIBkpD4pA503GGiePHvxVBliMcTtw7RO+PC+hlYDmVxUPmDCfFPZE2INOw3nZ/JdePFFPCx7vE3ySC9x3H2WDsc5OvFnWgVXPlLMdrbcOxnGBiWCNxvuQf8A11PSKvhPqmScAABswh0iOvmBbIPR1tqxgAGCDH/wfVfb+HqYn6YXfRLko3xHUOCDOkBAgUwL+K6s5KgLBgB0SLNCmarLo6JrzDi2e4cGEUXNDDn6HOnRQY3GyCmZ+efP1X1nc3EOJlTB1w1gY+FkS27TK8R1WyunKvmSCc3wQ+aK3ALSRCONiaxx1jMdKVJTTxcgD3ZsxVzUbD0Nqz9trokJOCdVUrBZ4Gt++NwZWqg6agYymZw7rGHRTa3ZGPwTfC9Ct4/BKLv5lbR2jdhBxQ/hYojbpGHFRI/C+puLMeuHhoDPabMY90pXI1pZTLxKsJ7VbjWFEFxxZ3ga2qsdxmK8RzGtYsW9bxIQWFPq08n7bkKSsrBMp8gjv0hmGmiQkU/sIRpyL0TgmaZ9eZoYB3zdPr2q71BQqR3CbjufriPKIgeVMlHCHN32BURuq4w4wmsmbJ3tPW7mjBg7f1APUrubDpPFKfzqmtKBFg91mFu76k7ttx1zPRIU1ObcpJR587Sjf4a4xHrPqLs+Tgf8tlQQIdNJXm7YywNvM0UYr4Z+Rdifxj+sag7SNi/w8QBv+XDRz7J+WkZad6EIHlP5/oZZrDnjgBuS/gkQgaLNoltp/LxIOaMqEspJu+sF2rYYHqVpVG7p9cgMLlMQ2EJvP1usZhpoLMnG41AmRdZDAsk+uqK2RYLkivW4BfbnHN8xXz3ntAcc6803BnVtWUCee8Nn6QBbiFbnTOItCyR+XPIF7j4qfABURbZadt6jfdR+Gl1R5AvnNc7X5hApkOFwfElgsruL+mCfkxT6uXoI+wIGDHa5NfDHATmLpWzL1V7diwPG1aP1478bDiyKXyCj0rwmd+VLUsA4eLH/udcb35649aEWEVi6sfl/6JRUlarOdmRsTPtmTr72oAzsu82UyrKXSC1x5727cdxDPh3HauL8b9d+Z7DblwiukVNwYgOEKwJUYfnTGeC9aMrmpRV6QMZzETB/2jpY2dYWGqXH0Q+cFB3+HpuXkl+DfUiAa6w/RWJDvui111KQUv2XWuQk65LcSoah+oEyEma2q5mQaCFnHj2fm+guoHidgOrX86EsJ3JOw5yf6Atep0BK4numNpPTWGrTyNUMSYclxJB4xs5KKS2/x7BvshCgMt2p/7dfro0G4VkG3sB/Y1x+3RbIJCeKnoG34dtXI+ypRtlWM0SWtWS28bl59K94ll6sHjFgrQlk0iuwMsEe8ZXoFrf7WKM/MGFCUApkXEANzbIDgl3VPA3/f9ZRjSvwH6aj+qzFPxPO2bOU7aM8zpb/wSbDyQFBYdIF5g1CIuZiljyFmrukmsjUmmV57ZM/V/A9F38hR8YM5nH3V1nKwhsae6LZjMKb4bGu3Zf11Ahi7pyW/AAkFTRfgcfaR88/ItH359TJgjWEC2WjFyWMX1HiB57NamREPvh/QvFr3BYIE/rvexd/d2P//0p6x6ZKEqvUaGeTW0Zd8xk5NLYMxho2PD39S7WA8zL1yrwQ4tlgeC5BuyF46YAbXbgCUuNOZ6RBHg+Fxx8wTyY7Nsp8HNbM2hRP0W4qoTaNrCYEieaodobW1pIR5gl73NiOXwV9G22mAftRD0+2Q8a2DvITRDnj70Qh1S01gr1wh1KXRrqg6UqBNnLSt9Qk8D7VilNUhB30x73B6rK98nGx8mgkfAtPoinnwz2l/WDa4Fh/ImTf6sM0A24EVPYK6QAUZIhGdb37Lo5+uafgDEplkNEicB/HlXHSEXGavXAQW4Yf+YBIM65/wkdvz9ZaPkercWG3lNDl0a6NKnv3ttJIjufoOKuOXq3AiOgJlv2bU2pEcAyonzBj1SqNqWFMEPRam/ZwUj5fmJwqIcxUxVq9j81GiVD9Hmt7DX1lw/X47Woy5z5x9JrA/5pVkOLbmhJkoIobMqtz7K7uHRKtQcSlS5T+hSmufVkQgPqUXh3x1mLv3UJifgi6Zmbkd6xl2N/gIXt54AE6yi+spSrEge5fgZHObwUPbmOge8oNcJvt17yzUu1Xm4Ly5XgPhzT4vy+AkEAnEo4iBhCqptc5nGoJwq+TJj33UewpLB/43uzSmpya/AhuIz6B0KtSQ+6fo25B+oknajyfguiPCmJabZLj7q0CexQA36liDYrpemIFQ58AFxLl5DMe4UxFV2P1Jx3PH4a4y2iTnheytaZw30Me9Ywt8nXLK5rqz5bTYZza1yC3svwio0fNhjCZuWQHpL0r+4DCxb91JykpcTZzs0VwauEil+GSbdXtIG+QSWN8znR27YUs1PCyJn9YJdMIyvoWS+N2gfAWsjQ8UZJhrFxlcr7Rm6KzO0a+GdsvxvSiwi5BOqJGYSHLLVTXOZz7X0sKDJXoTthM7FNYIGnWAqZqMtutypQtuSK6lWgEI36Y0IspjJXgfuEexNGERklkhAmFKnHz/CWAer/qtXREpzUwx/8s9Av6u0nToleIAny4NYK28c2lz3NWuVzSyBuDxddH8xvarLOI7UFGyXOlMHinh1vqNnjW7jBLhcEEDN4hloHFRyDEEtRTcjf+1SWmvqpqok3zVXzihvGMQjh0zwsBvVd9Knd1BV5awItI7pjELbDta4s4VdRZ9KquSVawKfjcw+FS2pO7vUVe9qC6SISRRYWSLzv73uBWarzC7EqEzWipT11PRou0bRjM8dDa1t0SZ2zTcpjSvbf9J9MdP2VANhOaC/3+hxtvgPqg1/8mYfFfr8fTq4KZjHpHJy0vg8KmBmMvL3oM0pNU2UslU3Zt2Yy8Dz8QoGknyIYEg1sr6r+mGeusYyu4VHR3OaBF9w6lap9MQuZykIA4mIkEIvLdxRtUqpRGczIhybCUTy/LMTZjfa0C2SI/QdGTfUVlzvluKk8QNHOwBmTTpi++wQzI8X2UDtHlT5NKAsKZQ74Jv4hZMqSzZWtYJA4jON9we/D0IssgbkUDckU76Zbt0fcFTtK/UacIIvK3aglrBK3EvlTU3UDA92//miwZPywFtZgFNwDyYTF4gWh3NdoWg2++5A+JAbdmOs2x4qO637cQSTkNrcm+ky0kxuYEbJTtyhKGMLliU5UcmghaTtIvNY9uMn7MoORm5ct8X0GtiU1Njtr1eNHmXBugw2Rjfyi5Fqx3pZ9wOjKtQaUxF/OMRokLY++wpjLVQ1tMd8VTMyN0R9FghtWfSQApzlViQ8pOrG3nRApUAfFWRt8qTH5dAXbcHr5QQMYwo2gFL1WDsPLGlGK5VjpgKPS32UMEooibpsifcDpYiPuSxWhD4S57qKMh07QDcLyrCVS0bOhbqUe5ezF0zWfYij+7154fpSjBy8yXuYkmvjOKFeMkgHP3eSvk/DrBLXAU1RC9/wD7JKl8OgAACMX9GEOJx3TikHeCVaVPp43dHRMSzSHkBfCsfQVzSfmaz9wcqq5DUc21MwxxnRg6cIwgh1W0aXOWYYb5kL5HMOdrOH9R6BPQwsAq5sLqrRl/4y14Mpn2uhk2x/7VcbTQqaE3YAdl3OLDgXs1dEf/dWh00tMDT79RlhnPPXgNX8gQklZg6HHyw+8CVHFH/bYicwiGXyHu6Ue61S1e0X3IPQjVafFNUuYiOP9RqJCD+T5tgAAAE11j1DFs6iETLebhoOL0/Dr3AVOmCZQKLdkrwX2ligTMjIWFoWgatE/uopUsgMmAV70WcRUbLShVXBHU8LBGtZIxcDHU7G42xrr/j2L/g3qwa+gjtZT3LmxT+YhpjfH5HARu9cgQJ3uqEHJLFMfGH8ZIJAD1+LkDHhT/GgKt6qd/y/V4LydN12zjqR+jdA5GR3L8i7wAxDVhhwgcBQbfa0CayL9NSwAAgNh/nahv9iClR/RYjWeu7VF2bZTeOKNZ9hNGeNZ8h/oSZkIuGzR17uxRAf6SVz9pWWGZln+ngWerGuo5Z45YkiqMP4qr/L6bjM/LLfyzwAVO92+vYxD07QhiVQzyxe9QyCqSj6l1/o42jGv6RrWK6IHm8EUV4KX/OwwY4eSQR5YM0dBk9F2EQhZtoPVJrwzlhtm9x08+qoSx7tNO27wMQfjaZELSTqHj9z+lquSIVk6VhvLZQtJ+96+lpJZN/jC+Xu4NBFHshSwK67PdZ+Ybd+yfgyq9Qgf09KJTDUnww1X0fmdBMD8GD8Ei1Jj9wfJ72AtgweQp5gSnp5hkFdkq9SPXVYC3Xi7gAAKMkVQIxsvnet9wXBdYrT5UrEU03F395i91jZIJ5a43XV/d3r2oSmgDiKGWTYLaGTpIyEKh1K65X4HplD2/0zYTI3Av9bN/se/4GGz/BnHU8wOqI+zu6hw/muq0kcVjEg98a+Mq0Vw1u2O63yzSR84KtdPeqs3lGy6z9bMY/CcbTvdqeLiENFPHiI81CvKqvSNxg+UdwL/xDTbqWIKUBg3MbSYtXHJvigR7AJcytjn+eIhYSHRVAx5h24s550x94AAHU3ztHrHu2CVz4gVzXOUB//PrHg1C1g6LaNOkfS1fXb/idm52RmtTEi1AWWF2Jn/FO5qzhzOEznKCUV9kEZ3DY9deW/8wMworvx3fiawCtULFOKwyzEWHV7hUbegT5WCC4kUKfYzZt3l4Xi3+cCeT2efdcC4FqwisoryrDmK/cVnMjVPfoS48QrerRm5Nl64XT3Rn3w6Fi1tJa5a2Zu4Uh+Mnwc2ES2c5DMUQDQ9MSbPpZujm0I4SfXfmZCV3ptxUeECohfG6xY80wClJ/tyQGOjvfq9VxdPKoNNf4VcrimTjTItENJnG1wMGPNvXdYqBJinIdtfoMburF4LJX135XeiJ4tqqIp2d9cJf3evrNTFVvj3vXaGfMHx97af/ZtXTlxgUA7Fk7A2U4NfzTlR2cQ1z0RgadJSSDuwK2NgPosLnQ2eFo6OP8rNtxXnFiV9PxrHTykAAAAARVhJRroAAABFeGlmAABJSSoACAAAAAYAEgEDAAEAAAABAAAAGgEFAAEAAABWAAAAGwEFAAEAAABeAAAAKAEDAAEAAAACAAAAEwIDAAEAAAABAAAAaYcEAAEAAABmAAAAAAAAAC8ZAQDoAwAALxkBAOgDAAAGAACQBwAEAAAAMDIxMAGRBwAEAAAAAQIDAACgBwAEAAAAMDEwMAGgAwABAAAA//8AAAKgBAABAAAAfAEAAAOgBAABAAAAfAEAAAAAAAA=;" vertex="1" parent="1">
          <mxGeometry x="570" y="308.5" width="76" height="76" as="geometry" />
        </mxCell>
      </root>
    </mxGraphModel>
  </diagram>
</mxfile>
